<svg width="51" height="56" viewBox="0 0 51 56" fill="none" xmlns="http://www.w3.org/2000/svg">
<path d="M41.699 7.78601C41.4776 7.78677 41.2598 7.72991 41.067 7.62101C36.3794 5.04964 31.1135 3.71628 25.767 3.74701C20.4205 3.71611 15.1546 5.04947 10.467 7.62101C10.146 7.79685 9.76823 7.83795 9.41688 7.73527C9.06553 7.6326 8.76936 7.39455 8.59352 7.07351C8.41768 6.75246 8.37658 6.37472 8.47926 6.02337C8.58193 5.67202 8.81998 5.37585 9.14102 5.20001C14.2378 2.44566 19.9392 1.00118 25.7326 0.996472C31.526 0.991759 37.2298 2.42695 42.331 5.17301C42.599 5.32002 42.811 5.55118 42.9344 5.83078C43.0579 6.11037 43.0858 6.42283 43.0138 6.71987C42.9419 7.0169 42.7742 7.28198 42.5365 7.47415C42.2989 7.66631 42.0045 7.77485 41.699 7.78301V7.78601ZM2.38302 22.211C2.0977 22.2102 1.81913 22.1242 1.58302 21.964C1.43405 21.8603 1.30719 21.7279 1.20981 21.5747C1.11243 21.4215 1.04647 21.2505 1.01577 21.0715C0.985066 20.8926 0.990228 20.7094 1.03096 20.5325C1.07169 20.3555 1.14717 20.1885 1.25302 20.041C3.90401 16.2527 7.43968 13.1688 11.553 11.057C15.9494 8.85751 20.7969 7.71013 25.7128 7.70544C30.6287 7.70076 35.4784 8.8389 39.879 11.03C43.9838 13.1298 47.5181 16.1937 50.179 19.959C50.3861 20.2579 50.4668 20.6265 50.4036 20.9846C50.3404 21.3427 50.1385 21.6613 49.8416 21.8713C49.5448 22.0814 49.1771 22.1657 48.8184 22.1061C48.4597 22.0465 48.139 21.8477 47.926 21.553C45.52 18.147 42.324 15.3752 38.612 13.475C34.5989 11.4803 30.1774 10.4445 25.6958 10.4492C21.2143 10.4539 16.795 11.4989 12.786 13.502C9.0641 15.4231 5.85997 18.2128 3.44502 21.635C3.33404 21.8181 3.17612 21.9681 2.98763 22.0695C2.79913 22.171 2.58693 22.2202 2.37302 22.212L2.38302 22.211ZM19.554 55.373C19.3738 55.3754 19.195 55.34 19.0293 55.269C18.8636 55.1981 18.7146 55.0931 18.592 54.961C16.3645 52.864 14.4987 50.4133 13.07 47.708C11.1081 44.0441 10.115 39.9396 10.185 35.784C10.185 27.624 17.164 20.975 25.736 20.975C34.308 20.975 41.287 27.624 41.287 35.784C41.2774 36.1419 41.1284 36.4818 40.8719 36.7315C40.6154 36.9812 40.2715 37.1209 39.9135 37.1209C39.5555 37.1209 39.2117 36.9812 38.9552 36.7315C38.6986 36.4818 38.5497 36.1419 38.54 35.784C38.54 29.135 32.798 23.723 25.74 23.723C18.682 23.723 12.94 29.136 12.94 35.784C12.8716 39.4706 13.7514 43.1131 15.495 46.362C16.8193 48.8382 18.5358 51.0836 20.578 53.011C20.8293 53.2736 20.9695 53.6231 20.9695 53.9865C20.9695 54.35 20.8293 54.6994 20.578 54.962C20.3009 55.2235 19.935 55.3704 19.554 55.373ZM39.254 50.29C36.2319 50.364 33.2597 49.5107 30.737 47.845C28.7441 46.5224 27.1059 44.7314 25.9658 42.6287C24.8258 40.526 24.2188 38.1758 24.198 35.784C24.1931 35.6005 24.2249 35.4179 24.2917 35.2469C24.3585 35.076 24.4589 34.9201 24.5869 34.7886C24.715 34.657 24.8681 34.5525 25.0372 34.4811C25.2063 34.4097 25.388 34.3729 25.5715 34.3729C25.7551 34.3729 25.9368 34.4097 26.1059 34.4811C26.275 34.5525 26.4281 34.657 26.5561 34.7886C26.6841 34.9201 26.7845 35.076 26.8513 35.2469C26.9181 35.4179 26.95 35.6005 26.945 35.784C26.9609 37.7269 27.4556 39.6359 28.3853 41.3419C29.315 43.048 30.651 44.4985 32.275 45.565C34.346 46.9162 36.7826 47.5973 39.254 47.516C40.2121 47.4999 41.1674 47.4079 42.111 47.241C42.2906 47.2079 42.475 47.2108 42.6535 47.2495C42.832 47.2883 43.001 47.362 43.1507 47.4665C43.3005 47.5711 43.428 47.7043 43.5259 47.8584C43.6238 48.0126 43.6901 48.1847 43.721 48.3647C43.7519 48.5447 43.7468 48.729 43.706 48.907C43.6651 49.085 43.5893 49.2531 43.483 49.4016C43.3767 49.5501 43.2419 49.676 43.0866 49.772C42.9312 49.868 42.7584 49.9323 42.578 49.961C41.482 50.1696 40.3696 50.2801 39.254 50.291V50.29ZM33.732 55.95C33.6113 55.9451 33.4916 55.9267 33.375 55.895C29.4976 54.96 25.9579 52.9618 23.154 50.125C21.2562 48.2512 19.7514 46.0175 18.7276 43.5549C17.7039 41.0922 17.1818 38.45 17.192 35.783C17.2463 33.5908 18.1675 31.5095 19.7537 29.9953C21.3398 28.4811 23.4616 27.6575 25.654 27.705C27.8464 27.6575 29.9682 28.4811 31.5544 29.9953C33.1406 31.5095 34.0617 33.5908 34.116 35.783C34.2173 37.2296 34.8635 38.584 35.9241 39.5729C36.9847 40.5618 38.3809 41.1117 39.831 41.1117C41.2812 41.1117 42.6773 40.5618 43.738 39.5729C44.7986 38.584 45.4447 37.2296 45.546 35.783C45.546 25.425 36.617 17.018 25.627 17.018C21.8663 16.9753 18.1693 17.9908 14.9581 19.9485C11.7468 21.9063 9.1507 24.7275 7.46602 28.09C6.35499 30.5001 5.80096 33.1295 5.84502 35.783C5.83707 39.1743 6.46106 42.5373 7.68502 45.7C7.75139 45.8677 7.78328 46.047 7.77876 46.2272C7.77425 46.4075 7.73343 46.585 7.65875 46.7491C7.58406 46.9132 7.47705 47.0606 7.34411 47.1824C7.21117 47.3042 7.05503 47.3979 6.88502 47.458C6.71709 47.5213 6.53832 47.5508 6.35896 47.5448C6.17961 47.5388 6.0032 47.4975 5.83986 47.4231C5.67652 47.3488 5.52947 47.243 5.40714 47.1117C5.28481 46.9804 5.18962 46.8262 5.12702 46.658C3.80305 43.1833 3.12328 39.4964 3.12102 35.778C3.0743 32.7094 3.71245 29.6689 4.98902 26.878C6.89659 23.0476 9.8436 19.8313 13.4931 17.5969C17.1425 15.3625 21.3471 14.2003 25.626 14.243C38.126 14.243 48.293 23.887 48.293 35.756C48.1926 37.9328 47.2572 39.9871 45.6813 41.492C44.1053 42.9969 42.0101 43.8366 39.831 43.8366C37.652 43.8366 35.5567 42.9969 33.9808 41.492C32.4048 39.9871 31.4694 37.9328 31.369 35.756C31.3161 34.292 30.6847 32.9087 29.6134 31.9096C28.542 30.9104 27.1182 30.3769 25.654 30.426C24.1899 30.3769 22.766 30.9104 21.6947 31.9096C20.6233 32.9087 19.9919 34.292 19.939 35.756C19.9274 38.0594 20.3759 40.342 21.2582 42.4698C22.1405 44.5975 23.4388 46.5277 25.077 48.147C27.5349 50.6514 30.6484 52.413 34.061 53.23C34.2344 53.2766 34.3969 53.357 34.5391 53.4665C34.6814 53.576 34.8006 53.7126 34.89 53.8683C34.9794 54.024 35.0371 54.1958 35.06 54.3739C35.0828 54.552 35.0702 54.7328 35.023 54.906C34.9563 55.1997 34.7927 55.4624 34.5585 55.6518C34.3243 55.8412 34.0332 55.9463 33.732 55.95Z" fill="url(#paint0_linear)"/>
<defs>
<linearGradient id="paint0_linear" x1="38.1663" y1="55.95" x2="12.5615" y2="8.57445" gradientUnits="userSpaceOnUse">
<stop stop-color="#E1B780"/>
<stop offset="1" stop-color="#717B8A"/>
</linearGradient>
</defs>
</svg>
