<svg width="27" height="25" viewBox="0 0 27 25" fill="none" xmlns="http://www.w3.org/2000/svg">
<path d="M0.233005 11.91V11.526C0.231633 11.4705 0.241559 11.4153 0.26218 11.3637C0.282802 11.3121 0.313689 11.2653 0.352966 11.226C0.392243 11.1867 0.439092 11.1558 0.490669 11.1352C0.542246 11.1146 0.597475 11.1046 0.653005 11.106H9.75301C9.80853 11.1046 9.86376 11.1146 9.91534 11.1352C9.96692 11.1558 10.0138 11.1867 10.053 11.226C10.0923 11.2653 10.1232 11.3121 10.1438 11.3637C10.1645 11.4153 10.1744 11.4705 10.173 11.526V11.91C10.1744 11.9655 10.1645 12.0208 10.1438 12.0724C10.1232 12.1239 10.0923 12.1708 10.053 12.2101C10.0138 12.2493 9.96692 12.2802 9.91534 12.3008C9.86376 12.3215 9.80853 12.3314 9.75301 12.33H9.22501V14.31H11.769C11.7796 14.1474 11.8221 13.9884 11.8942 13.8422C11.9663 13.696 12.0664 13.5655 12.189 13.458C12.4333 13.2309 12.7555 13.1063 13.089 13.11C13.4189 13.1065 13.7373 13.2312 13.977 13.458C14.2202 13.6783 14.3704 13.983 14.397 14.31H15.981V10.242C15.8216 10.2341 15.6713 10.1654 15.561 10.05C15.5029 9.99179 15.457 9.92249 15.4261 9.84624C15.3952 9.76998 15.3798 9.6883 15.381 9.60602V9.23402C15.3804 9.14896 15.3971 9.06467 15.4301 8.98628C15.4631 8.90789 15.5117 8.83703 15.573 8.77802C15.6337 8.71561 15.7065 8.66635 15.787 8.63332C15.8675 8.60029 15.954 8.58419 16.041 8.58602H18.429C18.5144 8.5831 18.5994 8.59876 18.6781 8.63191C18.7568 8.66506 18.8274 8.71491 18.885 8.77802C19.0028 8.90034 19.0675 9.06423 19.065 9.23402V9.60602C19.0661 9.76975 19.0062 9.92803 18.897 10.05C18.8473 10.1101 18.785 10.1584 18.7144 10.1916C18.6439 10.2248 18.5669 10.242 18.489 10.242V14.31H20.361C20.681 14.3147 20.9866 14.4439 21.2129 14.6701C21.4392 14.8964 21.5684 15.202 21.573 15.522V19.038L26.049 24.882H20.357V21.234H19.505C19.6682 21.6349 19.7308 22.0696 19.6871 22.5002C19.6435 22.9308 19.495 23.3442 19.2546 23.7041C19.0142 24.0641 18.6894 24.3597 18.3083 24.565C17.9273 24.7703 17.5018 24.8792 17.069 24.882C16.3665 24.8791 15.6937 24.5988 15.197 24.1021C14.7002 23.6053 14.4199 22.9325 14.417 22.23C14.4128 21.8871 14.4781 21.547 14.609 21.23H13.409C13.54 21.5472 13.608 21.8869 13.609 22.23C13.6125 22.5786 13.5451 22.9243 13.4111 23.246C13.277 23.5678 13.079 23.859 12.829 24.102C12.5851 24.3491 12.2946 24.5453 11.9742 24.6792C11.6539 24.8131 11.3102 24.882 10.963 24.882C10.6158 24.882 10.2721 24.8131 9.95177 24.6792C9.63145 24.5453 9.34091 24.3491 9.097 24.102C8.73234 23.7319 8.4836 23.2634 8.38129 22.7539C8.27897 22.2445 8.32753 21.7163 8.521 21.234H7.097C7.23402 21.5499 7.30742 21.8897 7.313 22.234C7.31648 22.5826 7.24913 22.9283 7.11506 23.25C6.98098 23.5718 6.78296 23.863 6.533 24.106C6.2924 24.3591 6.00163 24.5592 5.67929 24.6935C5.35695 24.8278 5.01013 24.8934 4.661 24.886C4.31242 24.8895 3.96677 24.8221 3.64498 24.6881C3.3232 24.554 3.03199 24.356 2.789 24.106C2.53592 23.8654 2.33583 23.5746 2.20152 23.2523C2.06722 22.93 2.00165 22.5831 2.009 22.234C2.00934 21.8882 2.07728 21.5458 2.209 21.226C1.92286 21.1826 1.66204 21.0373 1.4746 20.8168C1.28716 20.5962 1.18573 20.3154 1.18901 20.026V18.994H1.169V12.334H0.653005C0.597475 12.3354 0.542246 12.3255 0.490669 12.3048C0.439092 12.2842 0.392243 12.2533 0.352966 12.2141C0.313689 12.1748 0.282802 12.1279 0.26218 12.0764C0.241559 12.0248 0.231633 11.9695 0.233005 11.914V11.91ZM2.693 16.638C2.69139 16.7582 2.71388 16.8775 2.75914 16.9889C2.8044 17.1003 2.87152 17.2015 2.95653 17.2865C3.04154 17.3715 3.14272 17.4386 3.2541 17.4839C3.36548 17.5291 3.48479 17.5516 3.605 17.55H5.333C5.4517 17.5538 5.56984 17.5323 5.67952 17.4867C5.78921 17.4412 5.8879 17.3728 5.96901 17.286C6.13828 17.1128 6.23303 16.8802 6.23301 16.638V13.878C6.23301 13.6393 6.13818 13.4104 5.9694 13.2416C5.80062 13.0728 5.5717 12.978 5.333 12.978H3.617C3.37797 12.9805 3.14927 13.0758 2.97912 13.2437C2.80898 13.4116 2.7107 13.639 2.705 13.878V16.638H2.693ZM14.069 3.21002C14.0666 3.44654 14.1158 3.68075 14.2132 3.8963C14.3106 4.11184 14.4539 4.30354 14.633 4.45802C14.6548 4.75472 14.7633 5.03847 14.945 5.27402C15.0915 5.53099 15.3327 5.72049 15.617 5.80202C15.6673 6.06298 15.7973 6.30194 15.989 6.48602C16.1877 6.66841 16.4326 6.79292 16.697 6.84602C16.6346 6.90667 16.5853 6.97953 16.5523 7.06004C16.5193 7.14056 16.5032 7.22701 16.505 7.31402C16.5025 7.41397 16.5204 7.51339 16.5575 7.60622C16.5946 7.69906 16.6502 7.78339 16.7209 7.85409C16.7916 7.92479 16.876 7.98038 16.9688 8.0175C17.0616 8.05462 17.1611 8.07249 17.261 8.07002C17.3638 8.07227 17.4659 8.05317 17.5609 8.01392C17.6559 7.97468 17.7418 7.91614 17.813 7.84202C17.8869 7.77315 17.9454 7.68944 17.9847 7.59638C18.024 7.50332 18.0432 7.40301 18.041 7.30202C18.0431 7.26582 18.0404 7.22951 18.033 7.19402C18.0242 7.15465 18.0201 7.11436 18.021 7.07402H18.057C18.1781 7.07458 18.2981 7.05039 18.4095 7.00293C18.5209 6.95547 18.6215 6.88574 18.705 6.79802C18.7929 6.71215 18.8627 6.60946 18.9101 6.49608C18.9575 6.38269 18.9816 6.26092 18.981 6.13802C18.9677 5.97716 18.9185 5.82134 18.837 5.68202C19.0592 5.55396 19.2323 5.3555 19.329 5.11802H19.869C20.3242 5.10162 20.7549 4.90781 21.069 4.57802C21.2312 4.42125 21.3594 4.2327 21.4454 4.02416C21.5314 3.81562 21.5735 3.59157 21.569 3.36602C21.5722 2.96923 21.4299 2.58502 21.169 2.28602C20.9084 1.97939 20.559 1.76133 20.169 1.66202C20.077 1.18942 19.8152 0.766833 19.433 0.474019C19.0519 0.168614 18.5774 0.00339548 18.089 0.00601927C17.6155 4.69284e-05 17.155 0.161549 16.789 0.462019C16.4202 0.758013 16.1588 1.16698 16.045 1.62602H15.913C15.4372 1.61868 14.975 1.78507 14.613 2.09402C14.4421 2.2252 14.304 2.39429 14.2096 2.58796C14.1152 2.78163 14.0671 2.99458 14.069 3.21002Z" fill="#575F6B"/>
</svg>
