<svg width="108" height="108" viewBox="0 0 108 108" fill="none" xmlns="http://www.w3.org/2000/svg">
<path fill-rule="evenodd" clip-rule="evenodd" d="M54 108C83.8234 108 108 83.8234 108 54C108 24.1766 83.8234 0 54 0C24.1766 0 0 24.1766 0 54C0 83.8234 24.1766 108 54 108ZM53.7796 101.829C80.3163 101.829 101.829 80.3163 101.829 53.7796C101.829 27.2429 80.3163 5.73061 53.7796 5.73061C27.2429 5.73061 5.73061 27.2429 5.73061 53.7796C5.73061 80.3163 27.2429 101.829 53.7796 101.829Z" fill="url(#paint0_linear)"/>
<path d="M74.2886 37.2537L77.11 38.8827C77.8237 39.2947 78.7014 38.7152 78.6029 37.897L77.4293 28.156C77.3495 27.4941 76.6567 27.0941 76.0436 27.356L67.0208 31.2101C66.263 31.5338 66.2 32.5838 66.9136 32.9958L69.7351 34.6247L60.7708 50.1513C60.4947 50.6296 60.6585 51.2412 61.1368 51.5174L63.9583 53.1463C64.4366 53.4225 65.0482 53.2586 65.3243 52.7803L74.2886 37.2537Z" fill="url(#paint1_linear)"/>
<path d="M33.9691 70.3055L31.1477 68.6765C30.434 68.2645 29.5563 68.844 29.6549 69.6622L30.8285 79.4032C30.9082 80.0651 31.601 80.4651 32.2141 80.2032L41.2369 76.3491C41.9947 76.0254 42.0577 74.9755 41.3441 74.5634L38.5226 72.9345L47.4869 57.4079C47.7631 56.9296 47.5992 56.318 47.1209 56.0418L44.2994 54.4129C43.8212 54.1367 43.2096 54.3006 42.9334 54.7789L33.9691 70.3055Z" fill="url(#paint2_linear)"/>
<path d="M67.7166 36.9088C67.3133 36.3964 66.877 35.9151 66.4078 35.4649C63.251 32.3931 59.0063 30.8572 53.6739 30.8572C48.2988 30.8572 44.0328 32.3931 40.876 35.4649C37.7192 38.4935 36.0554 42.9282 35.8848 48.769C35.8421 50.0237 35.8208 51.8408 35.8208 54.2204C35.8208 56.6 35.8421 58.4388 35.8848 59.7367C35.933 61.4232 36.0952 62.9906 36.3715 64.4389L42.2198 54.3093L42.2198 54.2204C42.2198 52.0139 42.2411 50.2833 42.2837 49.0286C42.4544 44.7453 43.5422 41.5653 45.5472 39.4886C47.5949 37.4119 50.3038 36.3735 53.6739 36.3735C57.0013 36.3735 59.6675 37.4119 61.6726 39.4886C62.6757 40.506 63.4536 41.7882 64.0063 43.3352L67.7166 36.9088Z" fill="url(#paint3_linear)"/>
<path d="M65.1279 54.2734L70.9155 44.2491C71.1906 45.6483 71.3518 47.155 71.399 48.769C71.4843 51.2784 71.5269 53.0955 71.5269 54.2204C71.5269 55.3021 71.4843 57.1408 71.399 59.7367C71.2283 65.7074 69.6072 70.1853 66.5358 73.1706C63.5069 76.1127 59.2196 77.5837 53.6739 77.5837C48.0855 77.5837 43.7555 76.1127 40.684 73.1706C40.3188 72.8107 39.9744 72.4291 39.6508 72.0258L43.411 65.513C43.9404 66.8791 44.6525 68.0255 45.5472 68.9523C47.5949 71.029 50.3038 72.0674 53.6739 72.0674C57.044 72.0674 59.7315 71.029 61.7365 68.9523C63.7415 66.8755 64.8294 63.6955 65 59.4123C65.0836 56.8682 65.1263 55.1553 65.1279 54.2734Z" fill="url(#paint4_linear)"/>
<defs>
<linearGradient id="paint0_linear" x1="81.216" y1="108" x2="33.912" y2="10.692" gradientUnits="userSpaceOnUse">
<stop stop-color="#E1B780"/>
<stop offset="1" stop-color="#717B8A"/>
</linearGradient>
<linearGradient id="paint1_linear" x1="81.216" y1="108" x2="33.912" y2="10.692" gradientUnits="userSpaceOnUse">
<stop stop-color="#E1B780"/>
<stop offset="1" stop-color="#717B8A"/>
</linearGradient>
<linearGradient id="paint2_linear" x1="81.216" y1="108" x2="33.912" y2="10.692" gradientUnits="userSpaceOnUse">
<stop stop-color="#E1B780"/>
<stop offset="1" stop-color="#717B8A"/>
</linearGradient>
<linearGradient id="paint3_linear" x1="81.216" y1="108" x2="33.912" y2="10.692" gradientUnits="userSpaceOnUse">
<stop stop-color="#E1B780"/>
<stop offset="1" stop-color="#717B8A"/>
</linearGradient>
<linearGradient id="paint4_linear" x1="81.216" y1="108" x2="33.912" y2="10.692" gradientUnits="userSpaceOnUse">
<stop stop-color="#E1B780"/>
<stop offset="1" stop-color="#717B8A"/>
</linearGradient>
</defs>
</svg>
