<svg width="721" height="460" viewBox="0 0 721 460" fill="none" xmlns="http://www.w3.org/2000/svg">
<g filter="url(#filter0_d)">
<path d="M678 23H42C30.9543 23 22 31.9543 22 43V417C22 428.046 30.9543 437 42 437H678C689.046 437 698 428.046 698 417V43C698 31.9543 689.046 23 678 23Z" fill="#EDEEF2"/>
</g>
<g filter="url(#filter1_d)">
<path d="M683 23H39C30.1634 23 23 30.1634 23 39V421C23 429.837 30.1634 437 39 437H683C691.837 437 699 429.837 699 421V39C699 30.1634 691.837 23 683 23Z" fill="url(#paint0_linear)"/>
</g>
<path d="M451.648 389.781L455.75 400.68L459.842 389.781H463.035V404H460.574V399.312L460.818 393.043L456.619 404H454.852L450.662 393.053L450.906 399.312V404H448.445V389.781H451.648ZM474.1 400.689H468.592L467.439 404H464.871L470.242 389.781H472.459L477.84 404H475.262L474.1 400.689ZM469.285 398.697H473.406L471.346 392.799L469.285 398.697ZM482.635 396.52L485.906 389.781H488.641L483.875 398.766V404H481.395V398.766L476.619 389.781H479.363L482.635 396.52ZM504.344 404H494.783V402.369L499.52 397.203C500.203 396.441 500.688 395.807 500.975 395.299C501.268 394.785 501.414 394.27 501.414 393.756C501.414 393.079 501.222 392.532 500.838 392.115C500.46 391.699 499.949 391.49 499.305 391.49C498.536 391.49 497.941 391.725 497.518 392.193C497.094 392.662 496.883 393.303 496.883 394.117H494.51C494.51 393.251 494.705 392.473 495.096 391.783C495.493 391.087 496.056 390.546 496.785 390.162C497.521 389.778 498.367 389.586 499.324 389.586C500.704 389.586 501.792 389.934 502.586 390.631C503.387 391.321 503.787 392.278 503.787 393.502C503.787 394.212 503.585 394.957 503.182 395.738C502.785 396.513 502.13 397.395 501.219 398.385L497.742 402.105H504.344V404ZM512.576 404H510.213V392.584L506.727 393.775V391.773L512.273 389.732H512.576V404Z" fill="#575F6B"/>
<g filter="url(#filter2_d)">
<path d="M492 313.102C492 311.389 487.523 308 482 308C476.477 308 472 311.389 472 313.102V373.898C472 375.611 476.477 379.5 482 379.5C487.523 379.5 492 375.611 492 373.898V313.102Z" fill="url(#paint1_linear)"/>
</g>
<g filter="url(#filter3_d)">
<path d="M461.119 297H459.303V284.959L455.66 286.297V284.656L460.836 282.713H461.119V297ZM475.328 290.936C475.328 293.051 474.967 294.624 474.244 295.652C473.521 296.681 472.392 297.195 470.855 297.195C469.339 297.195 468.215 296.694 467.486 295.691C466.757 294.682 466.38 293.178 466.354 291.18V288.768C466.354 286.678 466.715 285.125 467.438 284.109C468.16 283.094 469.293 282.586 470.836 282.586C472.366 282.586 473.492 283.077 474.215 284.061C474.938 285.037 475.309 286.548 475.328 288.592V290.936ZM473.521 288.465C473.521 286.935 473.307 285.822 472.877 285.125C472.447 284.422 471.767 284.07 470.836 284.07C469.911 284.07 469.238 284.419 468.814 285.115C468.391 285.812 468.173 286.883 468.16 288.328V291.219C468.16 292.755 468.382 293.891 468.824 294.627C469.273 295.356 469.951 295.721 470.855 295.721C471.747 295.721 472.408 295.376 472.838 294.686C473.274 293.995 473.502 292.908 473.521 291.424V288.465ZM484.488 286.434L484.537 287.605C485.312 286.694 486.357 286.238 487.672 286.238C489.15 286.238 490.156 286.805 490.689 287.938C491.041 287.43 491.497 287.02 492.057 286.707C492.623 286.395 493.29 286.238 494.059 286.238C496.376 286.238 497.555 287.465 497.594 289.92V297H495.787V290.027C495.787 289.272 495.615 288.709 495.27 288.338C494.924 287.96 494.345 287.771 493.531 287.771C492.861 287.771 492.304 287.973 491.861 288.377C491.419 288.774 491.161 289.311 491.09 289.988V297H489.273V290.076C489.273 288.54 488.521 287.771 487.018 287.771C485.833 287.771 485.022 288.276 484.586 289.285V297H482.779V286.434H484.488ZM506.48 294.197C506.48 293.709 506.295 293.331 505.924 293.064C505.559 292.791 504.918 292.557 504 292.361C503.089 292.166 502.363 291.932 501.822 291.658C501.288 291.385 500.891 291.059 500.631 290.682C500.377 290.304 500.25 289.855 500.25 289.334C500.25 288.468 500.615 287.736 501.344 287.137C502.079 286.538 503.017 286.238 504.156 286.238C505.354 286.238 506.324 286.548 507.066 287.166C507.815 287.785 508.189 288.576 508.189 289.539H506.373C506.373 289.044 506.161 288.618 505.738 288.26C505.322 287.902 504.794 287.723 504.156 287.723C503.499 287.723 502.984 287.866 502.613 288.152C502.242 288.439 502.057 288.813 502.057 289.275C502.057 289.712 502.229 290.04 502.574 290.262C502.919 290.483 503.541 290.695 504.439 290.896C505.344 291.098 506.077 291.339 506.637 291.619C507.197 291.899 507.61 292.238 507.877 292.635C508.15 293.025 508.287 293.504 508.287 294.07C508.287 295.014 507.91 295.773 507.154 296.346C506.399 296.912 505.419 297.195 504.215 297.195C503.368 297.195 502.62 297.046 501.969 296.746C501.318 296.447 500.807 296.03 500.436 295.496C500.071 294.956 499.889 294.373 499.889 293.748H501.695C501.728 294.354 501.969 294.835 502.418 295.193C502.874 295.545 503.473 295.721 504.215 295.721C504.898 295.721 505.445 295.584 505.855 295.311C506.272 295.031 506.48 294.66 506.48 294.197Z" fill="#575F6B"/>
</g>
<path d="M75.877 400.338C75.877 399.713 75.6556 399.231 75.2129 398.893C74.7767 398.554 73.9857 398.212 72.8398 397.867C71.694 397.522 70.7826 397.138 70.1055 396.715C68.8099 395.901 68.1621 394.84 68.1621 393.531C68.1621 392.385 68.6276 391.441 69.5586 390.699C70.4961 389.957 71.7103 389.586 73.2012 389.586C74.1908 389.586 75.0729 389.768 75.8477 390.133C76.6224 390.497 77.2311 391.018 77.6738 391.695C78.1165 392.366 78.3379 393.111 78.3379 393.932H75.877C75.877 393.189 75.6426 392.61 75.1738 392.193C74.7116 391.77 74.0475 391.559 73.1816 391.559C72.3743 391.559 71.7461 391.731 71.2969 392.076C70.8542 392.421 70.6328 392.903 70.6328 393.521C70.6328 394.042 70.8737 394.479 71.3555 394.83C71.8372 395.175 72.6315 395.514 73.7383 395.846C74.8451 396.171 75.7337 396.546 76.4043 396.969C77.0749 397.385 77.5664 397.867 77.8789 398.414C78.1914 398.954 78.3477 399.589 78.3477 400.318C78.3477 401.503 77.8919 402.447 76.9805 403.15C76.0755 403.847 74.8451 404.195 73.2891 404.195C72.2604 404.195 71.3132 404.007 70.4473 403.629C69.5879 403.245 68.9173 402.717 68.4355 402.047C67.9603 401.376 67.7227 400.595 67.7227 399.703H70.1934C70.1934 400.51 70.4603 401.135 70.9941 401.578C71.528 402.021 72.293 402.242 73.2891 402.242C74.1484 402.242 74.793 402.07 75.2227 401.725C75.6589 401.373 75.877 400.911 75.877 400.338ZM88.8262 397.652H82.9863V402.027H89.8125V404H80.5156V389.781H89.7441V391.773H82.9863V395.699H88.8262V397.652ZM94.2949 398.717V404H91.8242V389.781H97.2637C98.8522 389.781 100.112 390.195 101.043 391.021C101.98 391.848 102.449 392.942 102.449 394.303C102.449 395.696 101.99 396.78 101.072 397.555C100.161 398.329 98.8815 398.717 97.2344 398.717H94.2949ZM94.2949 396.734H97.2637C98.1426 396.734 98.8132 396.529 99.2754 396.119C99.7376 395.702 99.9688 395.104 99.9688 394.322C99.9688 393.554 99.7344 392.942 99.2656 392.486C98.7969 392.024 98.1523 391.786 97.332 391.773H94.2949V396.734ZM118.777 404H109.217V402.369L113.953 397.203C114.637 396.441 115.122 395.807 115.408 395.299C115.701 394.785 115.848 394.27 115.848 393.756C115.848 393.079 115.656 392.532 115.271 392.115C114.894 391.699 114.383 391.49 113.738 391.49C112.97 391.49 112.374 391.725 111.951 392.193C111.528 392.662 111.316 393.303 111.316 394.117H108.943C108.943 393.251 109.139 392.473 109.529 391.783C109.926 391.087 110.49 390.546 111.219 390.162C111.954 389.778 112.801 389.586 113.758 389.586C115.138 389.586 116.225 389.934 117.02 390.631C117.82 391.321 118.221 392.278 118.221 393.502C118.221 394.212 118.019 394.957 117.615 395.738C117.218 396.513 116.564 397.395 115.652 398.385L112.176 402.105H118.777V404ZM129.852 398.014C129.852 400.058 129.467 401.601 128.699 402.643C127.938 403.678 126.775 404.195 125.213 404.195C123.676 404.195 122.518 403.691 121.736 402.682C120.962 401.666 120.564 400.165 120.545 398.18V395.719C120.545 393.674 120.926 392.141 121.688 391.119C122.456 390.097 123.624 389.586 125.193 389.586C126.749 389.586 127.908 390.084 128.67 391.08C129.438 392.076 129.832 393.567 129.852 395.553V398.014ZM127.479 395.357C127.479 394.023 127.296 393.046 126.932 392.428C126.567 391.803 125.988 391.49 125.193 391.49C124.419 391.49 123.849 391.786 123.484 392.379C123.12 392.965 122.928 393.883 122.908 395.133V398.355C122.908 399.684 123.094 400.673 123.465 401.324C123.836 401.975 124.419 402.301 125.213 402.301C125.975 402.301 126.538 402.001 126.902 401.402C127.267 400.797 127.459 399.853 127.479 398.57V395.357Z" fill="#575F6B"/>
<g filter="url(#filter4_d)">
<path d="M81.3613 91.7969L75.4727 105H73.5781L79.4473 92.2656H71.752V90.7812H81.3613V91.7969ZM84.2422 97.8711L84.9648 90.7812H92.25V92.4512H86.498L86.0684 96.3281C86.765 95.918 87.556 95.7129 88.4414 95.7129C89.737 95.7129 90.7656 96.1426 91.5273 97.002C92.2891 97.8548 92.6699 99.0104 92.6699 100.469C92.6699 101.934 92.2728 103.089 91.4785 103.936C90.6908 104.775 89.5872 105.195 88.168 105.195C86.9115 105.195 85.8861 104.847 85.0918 104.15C84.2975 103.454 83.8451 102.49 83.7344 101.26H85.4434C85.554 102.074 85.8438 102.689 86.3125 103.105C86.7812 103.516 87.3997 103.721 88.168 103.721C89.0078 103.721 89.6654 103.434 90.1406 102.861C90.6224 102.288 90.8633 101.497 90.8633 100.488C90.8633 99.5378 90.6029 98.776 90.082 98.2031C89.5677 97.6237 88.8809 97.334 88.0215 97.334C87.2337 97.334 86.6152 97.5065 86.166 97.8516L85.6875 98.2422L84.2422 97.8711ZM101.488 94.4336L101.537 95.6055C102.312 94.694 103.357 94.2383 104.672 94.2383C106.15 94.2383 107.156 94.8047 107.689 95.9375C108.041 95.4297 108.497 95.0195 109.057 94.707C109.623 94.3945 110.29 94.2383 111.059 94.2383C113.376 94.2383 114.555 95.4655 114.594 97.9199V105H112.787V98.0273C112.787 97.2721 112.615 96.709 112.27 96.3379C111.924 95.9603 111.345 95.7715 110.531 95.7715C109.861 95.7715 109.304 95.9733 108.861 96.377C108.419 96.7741 108.161 97.3112 108.09 97.9883V105H106.273V98.0762C106.273 96.5397 105.521 95.7715 104.018 95.7715C102.833 95.7715 102.022 96.276 101.586 97.2852V105H99.7793V94.4336H101.488ZM123.48 102.197C123.48 101.709 123.295 101.331 122.924 101.064C122.559 100.791 121.918 100.557 121 100.361C120.089 100.166 119.363 99.9316 118.822 99.6582C118.288 99.3848 117.891 99.0592 117.631 98.6816C117.377 98.304 117.25 97.8548 117.25 97.334C117.25 96.4681 117.615 95.7357 118.344 95.1367C119.079 94.5378 120.017 94.2383 121.156 94.2383C122.354 94.2383 123.324 94.5475 124.066 95.166C124.815 95.7845 125.189 96.5755 125.189 97.5391H123.373C123.373 97.0443 123.161 96.6178 122.738 96.2598C122.322 95.9017 121.794 95.7227 121.156 95.7227C120.499 95.7227 119.984 95.8659 119.613 96.1523C119.242 96.4388 119.057 96.8132 119.057 97.2754C119.057 97.7116 119.229 98.0404 119.574 98.2617C119.919 98.4831 120.541 98.6947 121.439 98.8965C122.344 99.0983 123.077 99.3392 123.637 99.6191C124.197 99.8991 124.61 100.238 124.877 100.635C125.15 101.025 125.287 101.504 125.287 102.07C125.287 103.014 124.91 103.773 124.154 104.346C123.399 104.912 122.419 105.195 121.215 105.195C120.368 105.195 119.62 105.046 118.969 104.746C118.318 104.447 117.807 104.03 117.436 103.496C117.071 102.956 116.889 102.373 116.889 101.748H118.695C118.728 102.354 118.969 102.835 119.418 103.193C119.874 103.545 120.473 103.721 121.215 103.721C121.898 103.721 122.445 103.584 122.855 103.311C123.272 103.031 123.48 102.66 123.48 102.197Z" fill="#575F6B"/>
</g>
<mask id="mask0" mask-type="alpha" maskUnits="userSpaceOnUse" x="89" y="116" width="20" height="261">
<rect x="89" y="377" width="261" height="20" rx="10" transform="rotate(-90 89 377)" fill="white"/>
</mask>
<g mask="url(#mask0)">
<g filter="url(#filter5_f)">
<rect x="88.5" y="392.4" width="274.4" height="18.5" rx="9.25" transform="rotate(-90 88.5 392.4)" stroke="white" stroke-width="4"/>
</g>
<g opacity="0.55" filter="url(#filter6_f)">
<rect x="90" y="375.13" width="276.4" height="20.5" rx="10.25" transform="rotate(-90 90 375.13)" stroke="#586C8A" stroke-opacity="0.5" stroke-width="2"/>
</g>
</g>
<path d="M203.725 404H201.254L194.916 393.912V404H192.445V389.781H194.916L201.273 399.908V389.781H203.725V404ZM217.992 397.262C217.992 398.655 217.751 399.879 217.27 400.934C216.788 401.982 216.098 402.789 215.199 403.355C214.307 403.915 213.279 404.195 212.113 404.195C210.961 404.195 209.932 403.915 209.027 403.355C208.129 402.789 207.432 401.985 206.938 400.943C206.449 399.902 206.202 398.701 206.195 397.34V396.539C206.195 395.152 206.439 393.928 206.928 392.867C207.423 391.806 208.116 390.995 209.008 390.436C209.906 389.869 210.935 389.586 212.094 389.586C213.253 389.586 214.278 389.866 215.17 390.426C216.068 390.979 216.762 391.78 217.25 392.828C217.738 393.87 217.986 395.084 217.992 396.471V397.262ZM215.521 396.52C215.521 394.944 215.222 393.736 214.623 392.896C214.031 392.057 213.188 391.637 212.094 391.637C211.026 391.637 210.189 392.057 209.584 392.896C208.985 393.73 208.679 394.911 208.666 396.441V397.262C208.666 398.824 208.969 400.032 209.574 400.885C210.186 401.738 211.033 402.164 212.113 402.164C213.207 402.164 214.047 401.747 214.633 400.914C215.225 400.081 215.521 398.863 215.521 397.262V396.52ZM225.248 400.904L228.861 389.781H231.576L226.459 404H224.066L218.969 389.781H221.674L225.248 400.904ZM247.348 404H237.787V402.369L242.523 397.203C243.207 396.441 243.692 395.807 243.979 395.299C244.271 394.785 244.418 394.27 244.418 393.756C244.418 393.079 244.226 392.532 243.842 392.115C243.464 391.699 242.953 391.49 242.309 391.49C241.54 391.49 240.945 391.725 240.521 392.193C240.098 392.662 239.887 393.303 239.887 394.117H237.514C237.514 393.251 237.709 392.473 238.1 391.783C238.497 391.087 239.06 390.546 239.789 390.162C240.525 389.778 241.371 389.586 242.328 389.586C243.708 389.586 244.796 389.934 245.59 390.631C246.391 391.321 246.791 392.278 246.791 393.502C246.791 394.212 246.589 394.957 246.186 395.738C245.788 396.513 245.134 397.395 244.223 398.385L240.746 402.105H247.348V404ZM258.422 398.014C258.422 400.058 258.038 401.601 257.27 402.643C256.508 403.678 255.346 404.195 253.783 404.195C252.247 404.195 251.088 403.691 250.307 402.682C249.532 401.666 249.135 400.165 249.115 398.18V395.719C249.115 393.674 249.496 392.141 250.258 391.119C251.026 390.097 252.195 389.586 253.764 389.586C255.32 389.586 256.479 390.084 257.24 391.08C258.008 392.076 258.402 393.567 258.422 395.553V398.014ZM256.049 395.357C256.049 394.023 255.867 393.046 255.502 392.428C255.137 391.803 254.558 391.49 253.764 391.49C252.989 391.49 252.419 391.786 252.055 392.379C251.69 392.965 251.498 393.883 251.479 395.133V398.355C251.479 399.684 251.664 400.673 252.035 401.324C252.406 401.975 252.989 402.301 253.783 402.301C254.545 402.301 255.108 402.001 255.473 401.402C255.837 400.797 256.029 399.853 256.049 398.57V395.357Z" fill="#575F6B"/>
<g filter="url(#filter7_d)">
<path d="M206.271 130.771V132.305H205.939C204.533 132.331 203.413 132.747 202.58 133.555C201.747 134.362 201.265 135.498 201.135 136.963C201.883 136.104 202.906 135.674 204.201 135.674C205.438 135.674 206.424 136.11 207.16 136.982C207.902 137.855 208.273 138.981 208.273 140.361C208.273 141.826 207.873 142.998 207.072 143.877C206.278 144.756 205.21 145.195 203.869 145.195C202.508 145.195 201.405 144.674 200.559 143.633C199.712 142.585 199.289 141.237 199.289 139.59V138.896C199.289 136.279 199.846 134.281 200.959 132.9C202.079 131.514 203.742 130.804 205.949 130.771H206.271ZM203.898 137.178C203.28 137.178 202.71 137.363 202.189 137.734C201.669 138.105 201.307 138.571 201.105 139.131V139.795C201.105 140.967 201.369 141.911 201.896 142.627C202.424 143.343 203.081 143.701 203.869 143.701C204.683 143.701 205.321 143.402 205.783 142.803C206.252 142.204 206.486 141.419 206.486 140.449C206.486 139.473 206.249 138.685 205.773 138.086C205.305 137.48 204.68 137.178 203.898 137.178ZM219.328 138.936C219.328 141.051 218.967 142.624 218.244 143.652C217.521 144.681 216.392 145.195 214.855 145.195C213.339 145.195 212.215 144.694 211.486 143.691C210.757 142.682 210.38 141.178 210.354 139.18V136.768C210.354 134.678 210.715 133.125 211.438 132.109C212.16 131.094 213.293 130.586 214.836 130.586C216.366 130.586 217.492 131.077 218.215 132.061C218.938 133.037 219.309 134.548 219.328 136.592V138.936ZM217.521 136.465C217.521 134.935 217.307 133.822 216.877 133.125C216.447 132.422 215.767 132.07 214.836 132.07C213.911 132.07 213.238 132.419 212.814 133.115C212.391 133.812 212.173 134.883 212.16 136.328V139.219C212.16 140.755 212.382 141.891 212.824 142.627C213.273 143.356 213.951 143.721 214.855 143.721C215.747 143.721 216.408 143.376 216.838 142.686C217.274 141.995 217.502 140.908 217.521 139.424V136.465ZM228.488 134.434L228.537 135.605C229.312 134.694 230.357 134.238 231.672 134.238C233.15 134.238 234.156 134.805 234.689 135.938C235.041 135.43 235.497 135.02 236.057 134.707C236.623 134.395 237.29 134.238 238.059 134.238C240.376 134.238 241.555 135.465 241.594 137.92V145H239.787V138.027C239.787 137.272 239.615 136.709 239.27 136.338C238.924 135.96 238.345 135.771 237.531 135.771C236.861 135.771 236.304 135.973 235.861 136.377C235.419 136.774 235.161 137.311 235.09 137.988V145H233.273V138.076C233.273 136.54 232.521 135.771 231.018 135.771C229.833 135.771 229.022 136.276 228.586 137.285V145H226.779V134.434H228.488ZM250.48 142.197C250.48 141.709 250.295 141.331 249.924 141.064C249.559 140.791 248.918 140.557 248 140.361C247.089 140.166 246.363 139.932 245.822 139.658C245.288 139.385 244.891 139.059 244.631 138.682C244.377 138.304 244.25 137.855 244.25 137.334C244.25 136.468 244.615 135.736 245.344 135.137C246.079 134.538 247.017 134.238 248.156 134.238C249.354 134.238 250.324 134.548 251.066 135.166C251.815 135.785 252.189 136.576 252.189 137.539H250.373C250.373 137.044 250.161 136.618 249.738 136.26C249.322 135.902 248.794 135.723 248.156 135.723C247.499 135.723 246.984 135.866 246.613 136.152C246.242 136.439 246.057 136.813 246.057 137.275C246.057 137.712 246.229 138.04 246.574 138.262C246.919 138.483 247.541 138.695 248.439 138.896C249.344 139.098 250.077 139.339 250.637 139.619C251.197 139.899 251.61 140.238 251.877 140.635C252.15 141.025 252.287 141.504 252.287 142.07C252.287 143.014 251.91 143.773 251.154 144.346C250.399 144.912 249.419 145.195 248.215 145.195C247.368 145.195 246.62 145.046 245.969 144.746C245.318 144.447 244.807 144.03 244.436 143.496C244.071 142.956 243.889 142.373 243.889 141.748H245.695C245.728 142.354 245.969 142.835 246.418 143.193C246.874 143.545 247.473 143.721 248.215 143.721C248.898 143.721 249.445 143.584 249.855 143.311C250.272 143.031 250.48 142.66 250.48 142.197Z" fill="#575F6B"/>
</g>
<mask id="mask1" mask-type="alpha" maskUnits="userSpaceOnUse" x="216" y="161" width="20" height="216">
<rect x="216" y="377" width="216" height="20" rx="10" transform="rotate(-90 216 377)" fill="white"/>
</mask>
<g mask="url(#mask1)">
<g filter="url(#filter8_f)">
<rect x="215.5" y="389.4" width="226.4" height="18.5" rx="9.25" transform="rotate(-90 215.5 389.4)" stroke="white" stroke-width="4"/>
</g>
<g opacity="0.55" filter="url(#filter9_f)">
<rect x="217" y="375.28" width="228.4" height="20.5" rx="10.25" transform="rotate(-90 217 375.28)" stroke="#586C8A" stroke-opacity="0.5" stroke-width="2"/>
</g>
</g>
<path d="M327.266 389.781H329.727V399.752C329.727 401.113 329.3 402.193 328.447 402.994C327.601 403.795 326.481 404.195 325.088 404.195C323.604 404.195 322.458 403.821 321.65 403.072C320.843 402.324 320.439 401.282 320.439 399.947H322.9C322.9 400.702 323.086 401.272 323.457 401.656C323.835 402.034 324.378 402.223 325.088 402.223C325.752 402.223 326.279 402.005 326.67 401.568C327.067 401.126 327.266 400.517 327.266 399.742V389.781ZM340.303 400.689H334.795L333.643 404H331.074L336.445 389.781H338.662L344.043 404H341.465L340.303 400.689ZM335.488 398.697H339.609L337.549 392.799L335.488 398.697ZM356.943 404H354.473L348.135 393.912V404H345.664V389.781H348.135L354.492 399.908V389.781H356.943V404ZM374.023 404H364.463V402.369L369.199 397.203C369.883 396.441 370.368 395.807 370.654 395.299C370.947 394.785 371.094 394.27 371.094 393.756C371.094 393.079 370.902 392.532 370.518 392.115C370.14 391.699 369.629 391.49 368.984 391.49C368.216 391.49 367.62 391.725 367.197 392.193C366.774 392.662 366.562 393.303 366.562 394.117H364.189C364.189 393.251 364.385 392.473 364.775 391.783C365.173 391.087 365.736 390.546 366.465 390.162C367.201 389.778 368.047 389.586 369.004 389.586C370.384 389.586 371.471 389.934 372.266 390.631C373.066 391.321 373.467 392.278 373.467 393.502C373.467 394.212 373.265 394.957 372.861 395.738C372.464 396.513 371.81 397.395 370.898 398.385L367.422 402.105H374.023V404ZM382.256 404H379.893V392.584L376.406 393.775V391.773L381.953 389.732H382.256V404Z" fill="#575F6B"/>
<g filter="url(#filter10_d)">
<path d="M336.498 265H327.182V263.701L332.104 258.232C332.833 257.406 333.334 256.735 333.607 256.221C333.887 255.7 334.027 255.163 334.027 254.609C334.027 253.867 333.803 253.258 333.354 252.783C332.904 252.308 332.305 252.07 331.557 252.07C330.658 252.07 329.958 252.327 329.457 252.842C328.962 253.35 328.715 254.059 328.715 254.971H326.908C326.908 253.662 327.328 252.604 328.168 251.797C329.014 250.99 330.144 250.586 331.557 250.586C332.878 250.586 333.923 250.934 334.691 251.631C335.46 252.321 335.844 253.242 335.844 254.395C335.844 255.794 334.952 257.461 333.168 259.395L329.359 263.525H336.498V265ZM339.242 257.871L339.965 250.781H347.25V252.451H341.498L341.068 256.328C341.765 255.918 342.556 255.713 343.441 255.713C344.737 255.713 345.766 256.143 346.527 257.002C347.289 257.855 347.67 259.01 347.67 260.469C347.67 261.934 347.273 263.089 346.479 263.936C345.691 264.775 344.587 265.195 343.168 265.195C341.911 265.195 340.886 264.847 340.092 264.15C339.298 263.454 338.845 262.49 338.734 261.26H340.443C340.554 262.074 340.844 262.689 341.312 263.105C341.781 263.516 342.4 263.721 343.168 263.721C344.008 263.721 344.665 263.434 345.141 262.861C345.622 262.288 345.863 261.497 345.863 260.488C345.863 259.538 345.603 258.776 345.082 258.203C344.568 257.624 343.881 257.334 343.021 257.334C342.234 257.334 341.615 257.507 341.166 257.852L340.688 258.242L339.242 257.871ZM356.488 254.434L356.537 255.605C357.312 254.694 358.357 254.238 359.672 254.238C361.15 254.238 362.156 254.805 362.689 255.938C363.041 255.43 363.497 255.02 364.057 254.707C364.623 254.395 365.29 254.238 366.059 254.238C368.376 254.238 369.555 255.465 369.594 257.92V265H367.787V258.027C367.787 257.272 367.615 256.709 367.27 256.338C366.924 255.96 366.345 255.771 365.531 255.771C364.861 255.771 364.304 255.973 363.861 256.377C363.419 256.774 363.161 257.311 363.09 257.988V265H361.273V258.076C361.273 256.54 360.521 255.771 359.018 255.771C357.833 255.771 357.022 256.276 356.586 257.285V265H354.779V254.434H356.488ZM378.48 262.197C378.48 261.709 378.295 261.331 377.924 261.064C377.559 260.791 376.918 260.557 376 260.361C375.089 260.166 374.363 259.932 373.822 259.658C373.288 259.385 372.891 259.059 372.631 258.682C372.377 258.304 372.25 257.855 372.25 257.334C372.25 256.468 372.615 255.736 373.344 255.137C374.079 254.538 375.017 254.238 376.156 254.238C377.354 254.238 378.324 254.548 379.066 255.166C379.815 255.785 380.189 256.576 380.189 257.539H378.373C378.373 257.044 378.161 256.618 377.738 256.26C377.322 255.902 376.794 255.723 376.156 255.723C375.499 255.723 374.984 255.866 374.613 256.152C374.242 256.439 374.057 256.813 374.057 257.275C374.057 257.712 374.229 258.04 374.574 258.262C374.919 258.483 375.541 258.695 376.439 258.896C377.344 259.098 378.077 259.339 378.637 259.619C379.197 259.899 379.61 260.238 379.877 260.635C380.15 261.025 380.287 261.504 380.287 262.07C380.287 263.014 379.91 263.773 379.154 264.346C378.399 264.912 377.419 265.195 376.215 265.195C375.368 265.195 374.62 265.046 373.969 264.746C373.318 264.447 372.807 264.03 372.436 263.496C372.071 262.956 371.889 262.373 371.889 261.748H373.695C373.728 262.354 373.969 262.835 374.418 263.193C374.874 263.545 375.473 263.721 376.215 263.721C376.898 263.721 377.445 263.584 377.855 263.311C378.272 263.031 378.48 262.66 378.48 262.197Z" fill="#575F6B"/>
</g>
<mask id="mask2" mask-type="alpha" maskUnits="userSpaceOnUse" x="344" y="284" width="20" height="93">
<rect x="344" y="377" width="93" height="20" rx="10" transform="rotate(-90 344 377)" fill="white"/>
</mask>
<g mask="url(#mask2)">
<g filter="url(#filter11_f)">
<rect x="343.5" y="381.2" width="95.2" height="18.5" rx="9.25" transform="rotate(-90 343.5 381.2)" stroke="white" stroke-width="4"/>
</g>
<g opacity="0.55" filter="url(#filter12_f)">
<rect x="345" y="375.69" width="97.2" height="20.5" rx="10.25" transform="rotate(-90 345 375.69)" stroke="#586C8A" stroke-opacity="0.5" stroke-width="2"/>
</g>
</g>
<path d="M589.793 397.262C589.793 398.655 589.552 399.879 589.07 400.934C588.589 401.982 587.898 402.789 587 403.355C586.108 403.915 585.079 404.195 583.914 404.195C582.762 404.195 581.733 403.915 580.828 403.355C579.93 402.789 579.233 401.985 578.738 400.943C578.25 399.902 578.003 398.701 577.996 397.34V396.539C577.996 395.152 578.24 393.928 578.729 392.867C579.223 391.806 579.917 390.995 580.809 390.436C581.707 389.869 582.736 389.586 583.895 389.586C585.053 389.586 586.079 389.866 586.971 390.426C587.869 390.979 588.562 391.78 589.051 392.828C589.539 393.87 589.786 395.084 589.793 396.471V397.262ZM587.322 396.52C587.322 394.944 587.023 393.736 586.424 392.896C585.831 392.057 584.988 391.637 583.895 391.637C582.827 391.637 581.99 392.057 581.385 392.896C580.786 393.73 580.48 394.911 580.467 396.441V397.262C580.467 398.824 580.77 400.032 581.375 400.885C581.987 401.738 582.833 402.164 583.914 402.164C585.008 402.164 585.848 401.747 586.434 400.914C587.026 400.081 587.322 398.863 587.322 397.262V396.52ZM603.104 399.371C602.96 400.888 602.4 402.073 601.424 402.926C600.447 403.772 599.148 404.195 597.527 404.195C596.395 404.195 595.395 403.928 594.529 403.395C593.67 402.854 593.006 402.089 592.537 401.1C592.068 400.11 591.824 398.961 591.805 397.652V396.324C591.805 394.983 592.042 393.801 592.518 392.779C592.993 391.757 593.673 390.969 594.559 390.416C595.451 389.863 596.479 389.586 597.645 389.586C599.214 389.586 600.477 390.012 601.434 390.865C602.391 391.718 602.947 392.923 603.104 394.479H600.643C600.525 393.456 600.226 392.721 599.744 392.271C599.269 391.816 598.569 391.588 597.645 391.588C596.57 391.588 595.743 391.982 595.164 392.77C594.591 393.551 594.298 394.7 594.285 396.217V397.477C594.285 399.013 594.559 400.185 595.105 400.992C595.659 401.799 596.466 402.203 597.527 402.203C598.497 402.203 599.227 401.985 599.715 401.549C600.203 401.113 600.512 400.387 600.643 399.371H603.104ZM615.301 391.773H610.867V404H608.416V391.773H604.021V389.781H615.301V391.773ZM630.75 404H621.189V402.369L625.926 397.203C626.609 396.441 627.094 395.807 627.381 395.299C627.674 394.785 627.82 394.27 627.82 393.756C627.82 393.079 627.628 392.532 627.244 392.115C626.867 391.699 626.355 391.49 625.711 391.49C624.943 391.49 624.347 391.725 623.924 392.193C623.501 392.662 623.289 393.303 623.289 394.117H620.916C620.916 393.251 621.111 392.473 621.502 391.783C621.899 391.087 622.462 390.546 623.191 390.162C623.927 389.778 624.773 389.586 625.73 389.586C627.111 389.586 628.198 389.934 628.992 390.631C629.793 391.321 630.193 392.278 630.193 393.502C630.193 394.212 629.992 394.957 629.588 395.738C629.191 396.513 628.536 397.395 627.625 398.385L624.148 402.105H630.75V404ZM638.982 404H636.619V392.584L633.133 393.775V391.773L638.68 389.732H638.982V404Z" fill="#575F6B"/>
<g filter="url(#filter13_d)">
<path d="M589.012 314.871L589.734 307.781H597.02V309.451H591.268L590.838 313.328C591.535 312.918 592.326 312.713 593.211 312.713C594.507 312.713 595.535 313.143 596.297 314.002C597.059 314.855 597.439 316.01 597.439 317.469C597.439 318.934 597.042 320.089 596.248 320.936C595.46 321.775 594.357 322.195 592.938 322.195C591.681 322.195 590.656 321.847 589.861 321.15C589.067 320.454 588.615 319.49 588.504 318.26H590.213C590.324 319.074 590.613 319.689 591.082 320.105C591.551 320.516 592.169 320.721 592.938 320.721C593.777 320.721 594.435 320.434 594.91 319.861C595.392 319.288 595.633 318.497 595.633 317.488C595.633 316.538 595.372 315.776 594.852 315.203C594.337 314.624 593.65 314.334 592.791 314.334C592.003 314.334 591.385 314.507 590.936 314.852L590.457 315.242L589.012 314.871ZM606.258 311.434L606.307 312.605C607.081 311.694 608.126 311.238 609.441 311.238C610.919 311.238 611.925 311.805 612.459 312.938C612.811 312.43 613.266 312.02 613.826 311.707C614.393 311.395 615.06 311.238 615.828 311.238C618.146 311.238 619.324 312.465 619.363 314.92V322H617.557V315.027C617.557 314.272 617.384 313.709 617.039 313.338C616.694 312.96 616.115 312.771 615.301 312.771C614.63 312.771 614.074 312.973 613.631 313.377C613.188 313.774 612.931 314.311 612.859 314.988V322H611.043V315.076C611.043 313.54 610.291 312.771 608.787 312.771C607.602 312.771 606.792 313.276 606.355 314.285V322H604.549V311.434H606.258ZM628.25 319.197C628.25 318.709 628.064 318.331 627.693 318.064C627.329 317.791 626.688 317.557 625.77 317.361C624.858 317.166 624.132 316.932 623.592 316.658C623.058 316.385 622.661 316.059 622.4 315.682C622.146 315.304 622.02 314.855 622.02 314.334C622.02 313.468 622.384 312.736 623.113 312.137C623.849 311.538 624.786 311.238 625.926 311.238C627.124 311.238 628.094 311.548 628.836 312.166C629.585 312.785 629.959 313.576 629.959 314.539H628.143C628.143 314.044 627.931 313.618 627.508 313.26C627.091 312.902 626.564 312.723 625.926 312.723C625.268 312.723 624.754 312.866 624.383 313.152C624.012 313.439 623.826 313.813 623.826 314.275C623.826 314.712 623.999 315.04 624.344 315.262C624.689 315.483 625.311 315.695 626.209 315.896C627.114 316.098 627.846 316.339 628.406 316.619C628.966 316.899 629.38 317.238 629.646 317.635C629.92 318.025 630.057 318.504 630.057 319.07C630.057 320.014 629.679 320.773 628.924 321.346C628.169 321.912 627.189 322.195 625.984 322.195C625.138 322.195 624.389 322.046 623.738 321.746C623.087 321.447 622.576 321.03 622.205 320.496C621.84 319.956 621.658 319.373 621.658 318.748H623.465C623.497 319.354 623.738 319.835 624.188 320.193C624.643 320.545 625.242 320.721 625.984 320.721C626.668 320.721 627.215 320.584 627.625 320.311C628.042 320.031 628.25 319.66 628.25 319.197Z" fill="#575F6B"/>
</g>
<mask id="mask3" mask-type="alpha" maskUnits="userSpaceOnUse" x="600" y="335" width="20" height="38">
<rect x="600" y="373" width="38" height="20" rx="10" transform="rotate(-90 600 373)" fill="white"/>
</mask>
<g mask="url(#mask3)">
<g filter="url(#filter14_f)">
<rect x="599.5" y="373.533" width="36.5333" height="18.5" rx="9.25" transform="rotate(-90 599.5 373.533)" stroke="white" stroke-width="4"/>
</g>
<g opacity="0.55" filter="url(#filter15_f)">
<rect x="601" y="371.873" width="38.5333" height="20.5" rx="10.25" transform="rotate(-90 601 371.873)" stroke="#586C8A" stroke-opacity="0.5" stroke-width="2"/>
</g>
</g>
<path d="M456.445 64V49.7812H460.645C461.901 49.7812 463.014 50.0612 463.984 50.6211C464.961 51.181 465.716 51.9753 466.25 53.0039C466.784 54.0326 467.051 55.2109 467.051 56.5391V57.252C467.051 58.5996 466.781 59.7845 466.24 60.8066C465.706 61.8288 464.941 62.6165 463.945 63.1699C462.956 63.7233 461.82 64 460.537 64H456.445ZM458.916 51.7734V62.0273H460.527C461.823 62.0273 462.816 61.6237 463.506 60.8164C464.202 60.0026 464.557 58.8372 464.57 57.3203V56.5293C464.57 54.9863 464.235 53.8079 463.564 52.9941C462.894 52.1803 461.921 51.7734 460.645 51.7734H458.916ZM473.936 64.1953C472.432 64.1953 471.211 63.7233 470.273 62.7793C469.342 61.8288 468.877 60.5658 468.877 58.9902V58.6973C468.877 57.6426 469.079 56.7018 469.482 55.875C469.893 55.0417 470.465 54.3939 471.201 53.9316C471.937 53.4694 472.757 53.2383 473.662 53.2383C475.101 53.2383 476.211 53.6973 476.992 54.6152C477.78 55.5332 478.174 56.832 478.174 58.5117V59.4688H471.27C471.341 60.3411 471.631 61.0312 472.139 61.5391C472.653 62.0469 473.298 62.3008 474.072 62.3008C475.16 62.3008 476.045 61.8613 476.729 60.9824L478.008 62.2031C477.585 62.8346 477.018 63.3262 476.309 63.6777C475.605 64.0228 474.814 64.1953 473.936 64.1953ZM473.652 55.1426C473.001 55.1426 472.474 55.3704 472.07 55.8262C471.673 56.2819 471.419 56.9167 471.309 57.7305H475.83V57.5547C475.778 56.7604 475.566 56.1615 475.195 55.7578C474.824 55.3477 474.31 55.1426 473.652 55.1426ZM483.613 60.9922L485.85 53.4336H488.301L484.639 64H482.578L478.887 53.4336H481.348L483.613 60.9922ZM494.307 64.1953C492.803 64.1953 491.582 63.7233 490.645 62.7793C489.714 61.8288 489.248 60.5658 489.248 58.9902V58.6973C489.248 57.6426 489.45 56.7018 489.854 55.875C490.264 55.0417 490.837 54.3939 491.572 53.9316C492.308 53.4694 493.128 53.2383 494.033 53.2383C495.472 53.2383 496.582 53.6973 497.363 54.6152C498.151 55.5332 498.545 56.832 498.545 58.5117V59.4688H491.641C491.712 60.3411 492.002 61.0312 492.51 61.5391C493.024 62.0469 493.669 62.3008 494.443 62.3008C495.531 62.3008 496.416 61.8613 497.1 60.9824L498.379 62.2031C497.956 62.8346 497.389 63.3262 496.68 63.6777C495.977 64.0228 495.186 64.1953 494.307 64.1953ZM494.023 55.1426C493.372 55.1426 492.845 55.3704 492.441 55.8262C492.044 56.2819 491.79 56.9167 491.68 57.7305H496.201V57.5547C496.149 56.7604 495.938 56.1615 495.566 55.7578C495.195 55.3477 494.681 55.1426 494.023 55.1426ZM502.92 64H500.547V49H502.92V64ZM505.068 58.6191C505.068 57.584 505.273 56.653 505.684 55.8262C506.094 54.9928 506.67 54.3548 507.412 53.9121C508.154 53.4629 509.007 53.2383 509.971 53.2383C511.396 53.2383 512.552 53.6973 513.438 54.6152C514.329 55.5332 514.811 56.7507 514.883 58.2676L514.893 58.8242C514.893 59.8659 514.691 60.7969 514.287 61.6172C513.89 62.4375 513.317 63.0723 512.568 63.5215C511.826 63.9707 510.967 64.1953 509.99 64.1953C508.499 64.1953 507.305 63.7005 506.406 62.7109C505.514 61.7148 505.068 60.39 505.068 58.7363V58.6191ZM507.441 58.8242C507.441 59.9115 507.666 60.7643 508.115 61.3828C508.564 61.9948 509.189 62.3008 509.99 62.3008C510.791 62.3008 511.413 61.9883 511.855 61.3633C512.305 60.7383 512.529 59.8236 512.529 58.6191C512.529 57.5514 512.298 56.7051 511.836 56.0801C511.38 55.4551 510.758 55.1426 509.971 55.1426C509.196 55.1426 508.581 55.4518 508.125 56.0703C507.669 56.6823 507.441 57.6003 507.441 58.8242ZM526.152 58.8242C526.152 60.4583 525.781 61.7637 525.039 62.7402C524.297 63.7103 523.301 64.1953 522.051 64.1953C520.892 64.1953 519.964 63.8145 519.268 63.0527V68.0625H516.895V53.4336H519.082L519.18 54.5078C519.876 53.6615 520.824 53.2383 522.021 53.2383C523.311 53.2383 524.32 53.7201 525.049 54.6836C525.785 55.6406 526.152 56.972 526.152 58.6777V58.8242ZM523.789 58.6191C523.789 57.5645 523.577 56.7279 523.154 56.1094C522.738 55.4909 522.139 55.1816 521.357 55.1816C520.387 55.1816 519.691 55.582 519.268 56.3828V61.0703C519.697 61.8906 520.4 62.3008 521.377 62.3008C522.132 62.3008 522.721 61.998 523.145 61.3926C523.574 60.7806 523.789 59.8561 523.789 58.6191ZM530.4 53.4336L530.469 54.5371C531.211 53.6712 532.227 53.2383 533.516 53.2383C534.928 53.2383 535.895 53.7786 536.416 54.8594C537.184 53.7786 538.265 53.2383 539.658 53.2383C540.824 53.2383 541.689 53.5605 542.256 54.2051C542.829 54.8496 543.122 55.8001 543.135 57.0566V64H540.762V57.125C540.762 56.4544 540.615 55.9629 540.322 55.6504C540.029 55.3379 539.544 55.1816 538.867 55.1816C538.327 55.1816 537.884 55.3281 537.539 55.6211C537.201 55.9076 536.963 56.2852 536.826 56.7539L536.836 64H534.463V57.0469C534.43 55.8034 533.796 55.1816 532.559 55.1816C531.608 55.1816 530.934 55.569 530.537 56.3438V64H528.164V53.4336H530.4ZM550.225 64.1953C548.721 64.1953 547.5 63.7233 546.562 62.7793C545.632 61.8288 545.166 60.5658 545.166 58.9902V58.6973C545.166 57.6426 545.368 56.7018 545.771 55.875C546.182 55.0417 546.755 54.3939 547.49 53.9316C548.226 53.4694 549.046 53.2383 549.951 53.2383C551.39 53.2383 552.5 53.6973 553.281 54.6152C554.069 55.5332 554.463 56.832 554.463 58.5117V59.4688H547.559C547.63 60.3411 547.92 61.0312 548.428 61.5391C548.942 62.0469 549.587 62.3008 550.361 62.3008C551.449 62.3008 552.334 61.8613 553.018 60.9824L554.297 62.2031C553.874 62.8346 553.307 63.3262 552.598 63.6777C551.895 64.0228 551.104 64.1953 550.225 64.1953ZM549.941 55.1426C549.29 55.1426 548.763 55.3704 548.359 55.8262C547.962 56.2819 547.708 56.9167 547.598 57.7305H552.119V57.5547C552.067 56.7604 551.855 56.1615 551.484 55.7578C551.113 55.3477 550.599 55.1426 549.941 55.1426ZM558.516 53.4336L558.584 54.6543C559.365 53.7103 560.391 53.2383 561.66 53.2383C563.861 53.2383 564.98 54.498 565.02 57.0176V64H562.646V57.1543C562.646 56.4837 562.5 55.9889 562.207 55.6699C561.921 55.3444 561.449 55.1816 560.791 55.1816C559.834 55.1816 559.121 55.6146 558.652 56.4805V64H556.279V53.4336H558.516ZM570.42 50.8652V53.4336H572.285V55.1914H570.42V61.0898C570.42 61.4935 570.498 61.7865 570.654 61.9688C570.817 62.1445 571.104 62.2324 571.514 62.2324C571.787 62.2324 572.064 62.1999 572.344 62.1348V63.9707C571.803 64.1204 571.283 64.1953 570.781 64.1953C568.958 64.1953 568.047 63.1895 568.047 61.1777V55.1914H566.309V53.4336H568.047V50.8652H570.42ZM581.787 58.7168V64H579.316V49.7812H584.756C586.344 49.7812 587.604 50.1947 588.535 51.0215C589.473 51.8483 589.941 52.9421 589.941 54.3027C589.941 55.696 589.482 56.7799 588.564 57.5547C587.653 58.3294 586.374 58.7168 584.727 58.7168H581.787ZM581.787 56.7344H584.756C585.635 56.7344 586.305 56.5293 586.768 56.1191C587.23 55.7025 587.461 55.1035 587.461 54.3223C587.461 53.554 587.227 52.9421 586.758 52.4863C586.289 52.0241 585.645 51.7865 584.824 51.7734H581.787V56.7344ZM597.412 55.6016C597.1 55.5495 596.777 55.5234 596.445 55.5234C595.358 55.5234 594.626 55.9401 594.248 56.7734V64H591.875V53.4336H594.141L594.199 54.6152C594.772 53.6973 595.566 53.2383 596.582 53.2383C596.921 53.2383 597.201 53.2839 597.422 53.375L597.412 55.6016ZM598.115 58.6191C598.115 57.584 598.32 56.653 598.73 55.8262C599.141 54.9928 599.717 54.3548 600.459 53.9121C601.201 53.4629 602.054 53.2383 603.018 53.2383C604.443 53.2383 605.599 53.6973 606.484 54.6152C607.376 55.5332 607.858 56.7507 607.93 58.2676L607.939 58.8242C607.939 59.8659 607.738 60.7969 607.334 61.6172C606.937 62.4375 606.364 63.0723 605.615 63.5215C604.873 63.9707 604.014 64.1953 603.037 64.1953C601.546 64.1953 600.352 63.7005 599.453 62.7109C598.561 61.7148 598.115 60.39 598.115 58.7363V58.6191ZM600.488 58.8242C600.488 59.9115 600.713 60.7643 601.162 61.3828C601.611 61.9948 602.236 62.3008 603.037 62.3008C603.838 62.3008 604.46 61.9883 604.902 61.3633C605.352 60.7383 605.576 59.8236 605.576 58.6191C605.576 57.5514 605.345 56.7051 604.883 56.0801C604.427 55.4551 603.805 55.1426 603.018 55.1426C602.243 55.1426 601.628 55.4518 601.172 56.0703C600.716 56.6823 600.488 57.6003 600.488 58.8242ZM609.531 58.6387C609.531 56.998 609.915 55.6895 610.684 54.7129C611.458 53.7298 612.484 53.2383 613.76 53.2383C614.964 53.2383 615.911 53.6582 616.602 54.498L616.709 53.4336H618.848V63.6777C618.848 65.0645 618.415 66.1582 617.549 66.959C616.689 67.7598 615.527 68.1602 614.062 68.1602C613.288 68.1602 612.529 67.9974 611.787 67.6719C611.051 67.3529 610.492 66.9329 610.107 66.4121L611.23 64.9863C611.96 65.8522 612.858 66.2852 613.926 66.2852C614.714 66.2852 615.335 66.0703 615.791 65.6406C616.247 65.2174 616.475 64.5924 616.475 63.7656V63.0527C615.791 63.8145 614.88 64.1953 613.74 64.1953C612.503 64.1953 611.491 63.7038 610.703 62.7207C609.922 61.7376 609.531 60.377 609.531 58.6387ZM611.895 58.8438C611.895 59.9049 612.109 60.7415 612.539 61.3535C612.975 61.959 613.577 62.2617 614.346 62.2617C615.303 62.2617 616.012 61.8516 616.475 61.0312V56.3828C616.025 55.582 615.322 55.1816 614.365 55.1816C613.584 55.1816 612.975 55.4909 612.539 56.1094C612.109 56.7279 611.895 57.6393 611.895 58.8438ZM626.826 55.6016C626.514 55.5495 626.191 55.5234 625.859 55.5234C624.772 55.5234 624.04 55.9401 623.662 56.7734V64H621.289V53.4336H623.555L623.613 54.6152C624.186 53.6973 624.98 53.2383 625.996 53.2383C626.335 53.2383 626.615 53.2839 626.836 53.375L626.826 55.6016ZM632.783 64.1953C631.279 64.1953 630.059 63.7233 629.121 62.7793C628.19 61.8288 627.725 60.5658 627.725 58.9902V58.6973C627.725 57.6426 627.926 56.7018 628.33 55.875C628.74 55.0417 629.313 54.3939 630.049 53.9316C630.785 53.4694 631.605 53.2383 632.51 53.2383C633.949 53.2383 635.059 53.6973 635.84 54.6152C636.628 55.5332 637.021 56.832 637.021 58.5117V59.4688H630.117C630.189 60.3411 630.479 61.0312 630.986 61.5391C631.501 62.0469 632.145 62.3008 632.92 62.3008C634.007 62.3008 634.893 61.8613 635.576 60.9824L636.855 62.2031C636.432 62.8346 635.866 63.3262 635.156 63.6777C634.453 64.0228 633.662 64.1953 632.783 64.1953ZM632.5 55.1426C631.849 55.1426 631.322 55.3704 630.918 55.8262C630.521 56.2819 630.267 56.9167 630.156 57.7305H634.678V57.5547C634.626 56.7604 634.414 56.1615 634.043 55.7578C633.672 55.3477 633.158 55.1426 632.5 55.1426ZM644.795 61.1289C644.795 60.7057 644.619 60.3835 644.268 60.1621C643.923 59.9408 643.346 59.7454 642.539 59.5762C641.732 59.4069 641.058 59.1921 640.518 58.9316C639.333 58.3587 638.74 57.5286 638.74 56.4414C638.74 55.5299 639.124 54.7682 639.893 54.1562C640.661 53.5443 641.637 53.2383 642.822 53.2383C644.085 53.2383 645.104 53.5508 645.879 54.1758C646.66 54.8008 647.051 55.6113 647.051 56.6074H644.678C644.678 56.1517 644.508 55.7741 644.17 55.4746C643.831 55.1686 643.382 55.0156 642.822 55.0156C642.301 55.0156 641.875 55.1361 641.543 55.377C641.217 55.6178 641.055 55.9401 641.055 56.3438C641.055 56.7083 641.208 56.9915 641.514 57.1934C641.82 57.3952 642.438 57.6003 643.369 57.8086C644.3 58.0104 645.029 58.2546 645.557 58.541C646.09 58.821 646.484 59.1595 646.738 59.5566C646.999 59.9538 647.129 60.4355 647.129 61.002C647.129 61.9525 646.735 62.724 645.947 63.3164C645.16 63.9023 644.128 64.1953 642.852 64.1953C641.986 64.1953 641.214 64.0391 640.537 63.7266C639.86 63.4141 639.333 62.9844 638.955 62.4375C638.577 61.8906 638.389 61.3014 638.389 60.6699H640.693C640.726 61.2298 640.938 61.6628 641.328 61.9688C641.719 62.2682 642.236 62.418 642.881 62.418C643.506 62.418 643.981 62.3008 644.307 62.0664C644.632 61.8255 644.795 61.513 644.795 61.1289ZM655.127 61.1289C655.127 60.7057 654.951 60.3835 654.6 60.1621C654.255 59.9408 653.678 59.7454 652.871 59.5762C652.064 59.4069 651.39 59.1921 650.85 58.9316C649.665 58.3587 649.072 57.5286 649.072 56.4414C649.072 55.5299 649.456 54.7682 650.225 54.1562C650.993 53.5443 651.969 53.2383 653.154 53.2383C654.417 53.2383 655.436 53.5508 656.211 54.1758C656.992 54.8008 657.383 55.6113 657.383 56.6074H655.01C655.01 56.1517 654.84 55.7741 654.502 55.4746C654.163 55.1686 653.714 55.0156 653.154 55.0156C652.633 55.0156 652.207 55.1361 651.875 55.377C651.549 55.6178 651.387 55.9401 651.387 56.3438C651.387 56.7083 651.54 56.9915 651.846 57.1934C652.152 57.3952 652.77 57.6003 653.701 57.8086C654.632 58.0104 655.361 58.2546 655.889 58.541C656.423 58.821 656.816 59.1595 657.07 59.5566C657.331 59.9538 657.461 60.4355 657.461 61.002C657.461 61.9525 657.067 62.724 656.279 63.3164C655.492 63.9023 654.46 64.1953 653.184 64.1953C652.318 64.1953 651.546 64.0391 650.869 63.7266C650.192 63.4141 649.665 62.9844 649.287 62.4375C648.91 61.8906 648.721 61.3014 648.721 60.6699H651.025C651.058 61.2298 651.27 61.6628 651.66 61.9688C652.051 62.2682 652.568 62.418 653.213 62.418C653.838 62.418 654.313 62.3008 654.639 62.0664C654.964 61.8255 655.127 61.513 655.127 61.1289Z" fill="#575F6B"/>
<defs>
<filter id="filter0_d" x="5" y="6" width="716" height="454" filterUnits="userSpaceOnUse" color-interpolation-filters="sRGB">
<feFlood flood-opacity="0" result="BackgroundImageFix"/>
<feColorMatrix in="SourceAlpha" type="matrix" values="0 0 0 0 0 0 0 0 0 0 0 0 0 0 0 0 0 0 127 0"/>
<feOffset dx="3" dy="3"/>
<feGaussianBlur stdDeviation="10"/>
<feColorMatrix type="matrix" values="0 0 0 0 0.141176 0 0 0 0 0.254902 0 0 0 0 0.364706 0 0 0 0.302 0"/>
<feBlend mode="normal" in2="BackgroundImageFix" result="effect1_dropShadow"/>
<feBlend mode="normal" in="SourceGraphic" in2="effect1_dropShadow" result="shape"/>
</filter>
<filter id="filter1_d" x="0" y="0" width="716" height="454" filterUnits="userSpaceOnUse" color-interpolation-filters="sRGB">
<feFlood flood-opacity="0" result="BackgroundImageFix"/>
<feColorMatrix in="SourceAlpha" type="matrix" values="0 0 0 0 0 0 0 0 0 0 0 0 0 0 0 0 0 0 127 0"/>
<feOffset dx="-3" dy="-3"/>
<feGaussianBlur stdDeviation="10"/>
<feColorMatrix type="matrix" values="0 0 0 0 1 0 0 0 0 1 0 0 0 0 1 0 0 0 1 0"/>
<feBlend mode="normal" in2="BackgroundImageFix" result="effect1_dropShadow"/>
<feBlend mode="normal" in="SourceGraphic" in2="effect1_dropShadow" result="shape"/>
</filter>
<filter id="filter2_d" x="468" y="302" width="32" height="83.5" filterUnits="userSpaceOnUse" color-interpolation-filters="sRGB">
<feFlood flood-opacity="0" result="BackgroundImageFix"/>
<feColorMatrix in="SourceAlpha" type="matrix" values="0 0 0 0 0 0 0 0 0 0 0 0 0 0 0 0 0 0 127 0"/>
<feOffset dx="2"/>
<feGaussianBlur stdDeviation="3"/>
<feColorMatrix type="matrix" values="0 0 0 0 0.976471 0 0 0 0 0.890196 0 0 0 0 0.109804 0 0 0 0.412 0"/>
<feBlend mode="normal" in2="BackgroundImageFix" result="effect1_dropShadow"/>
<feBlend mode="normal" in="SourceGraphic" in2="effect1_dropShadow" result="shape"/>
</filter>
<filter id="filter3_d" x="453.66" y="282.586" width="56.627" height="18.6094" filterUnits="userSpaceOnUse" color-interpolation-filters="sRGB">
<feFlood flood-opacity="0" result="BackgroundImageFix"/>
<feColorMatrix in="SourceAlpha" type="matrix" values="0 0 0 0 0 0 0 0 0 0 0 0 0 0 0 0 0 0 127 0"/>
<feOffset dy="2"/>
<feGaussianBlur stdDeviation="1"/>
<feColorMatrix type="matrix" values="0 0 0 0 0 0 0 0 0 0 0 0 0 0 0 0 0 0 0.161 0"/>
<feBlend mode="normal" in2="BackgroundImageFix" result="effect1_dropShadow"/>
<feBlend mode="normal" in="SourceGraphic" in2="effect1_dropShadow" result="shape"/>
</filter>
<filter id="filter4_d" x="69.752" y="90.7812" width="57.5352" height="18.4141" filterUnits="userSpaceOnUse" color-interpolation-filters="sRGB">
<feFlood flood-opacity="0" result="BackgroundImageFix"/>
<feColorMatrix in="SourceAlpha" type="matrix" values="0 0 0 0 0 0 0 0 0 0 0 0 0 0 0 0 0 0 127 0"/>
<feOffset dy="2"/>
<feGaussianBlur stdDeviation="1"/>
<feColorMatrix type="matrix" values="0 0 0 0 0 0 0 0 0 0 0 0 0 0 0 0 0 0 0.161 0"/>
<feBlend mode="normal" in2="BackgroundImageFix" result="effect1_dropShadow"/>
<feBlend mode="normal" in="SourceGraphic" in2="effect1_dropShadow" result="shape"/>
</filter>
<filter id="filter5_f" x="80.5" y="110" width="34.5" height="290.4" filterUnits="userSpaceOnUse" color-interpolation-filters="sRGB">
<feFlood flood-opacity="0" result="BackgroundImageFix"/>
<feBlend mode="normal" in="SourceGraphic" in2="BackgroundImageFix" result="shape"/>
<feGaussianBlur stdDeviation="3" result="effect1_foregroundBlur"/>
</filter>
<filter id="filter6_f" x="86" y="94.73" width="28.5" height="284.4" filterUnits="userSpaceOnUse" color-interpolation-filters="sRGB">
<feFlood flood-opacity="0" result="BackgroundImageFix"/>
<feBlend mode="normal" in="SourceGraphic" in2="BackgroundImageFix" result="shape"/>
<feGaussianBlur stdDeviation="1.5" result="effect1_foregroundBlur"/>
</filter>
<filter id="filter7_d" x="197.289" y="130.586" width="56.998" height="18.6094" filterUnits="userSpaceOnUse" color-interpolation-filters="sRGB">
<feFlood flood-opacity="0" result="BackgroundImageFix"/>
<feColorMatrix in="SourceAlpha" type="matrix" values="0 0 0 0 0 0 0 0 0 0 0 0 0 0 0 0 0 0 127 0"/>
<feOffset dy="2"/>
<feGaussianBlur stdDeviation="1"/>
<feColorMatrix type="matrix" values="0 0 0 0 0 0 0 0 0 0 0 0 0 0 0 0 0 0 0.161 0"/>
<feBlend mode="normal" in2="BackgroundImageFix" result="effect1_dropShadow"/>
<feBlend mode="normal" in="SourceGraphic" in2="effect1_dropShadow" result="shape"/>
</filter>
<filter id="filter8_f" x="207.5" y="155" width="34.5" height="242.4" filterUnits="userSpaceOnUse" color-interpolation-filters="sRGB">
<feFlood flood-opacity="0" result="BackgroundImageFix"/>
<feBlend mode="normal" in="SourceGraphic" in2="BackgroundImageFix" result="shape"/>
<feGaussianBlur stdDeviation="3" result="effect1_foregroundBlur"/>
</filter>
<filter id="filter9_f" x="213" y="142.88" width="28.5" height="236.4" filterUnits="userSpaceOnUse" color-interpolation-filters="sRGB">
<feFlood flood-opacity="0" result="BackgroundImageFix"/>
<feBlend mode="normal" in="SourceGraphic" in2="BackgroundImageFix" result="shape"/>
<feGaussianBlur stdDeviation="1.5" result="effect1_foregroundBlur"/>
</filter>
<filter id="filter10_d" x="324.908" y="250.586" width="57.3789" height="18.6094" filterUnits="userSpaceOnUse" color-interpolation-filters="sRGB">
<feFlood flood-opacity="0" result="BackgroundImageFix"/>
<feColorMatrix in="SourceAlpha" type="matrix" values="0 0 0 0 0 0 0 0 0 0 0 0 0 0 0 0 0 0 127 0"/>
<feOffset dy="2"/>
<feGaussianBlur stdDeviation="1"/>
<feColorMatrix type="matrix" values="0 0 0 0 0 0 0 0 0 0 0 0 0 0 0 0 0 0 0.161 0"/>
<feBlend mode="normal" in2="BackgroundImageFix" result="effect1_dropShadow"/>
<feBlend mode="normal" in="SourceGraphic" in2="effect1_dropShadow" result="shape"/>
</filter>
<filter id="filter11_f" x="335.5" y="278" width="34.5" height="111.2" filterUnits="userSpaceOnUse" color-interpolation-filters="sRGB">
<feFlood flood-opacity="0" result="BackgroundImageFix"/>
<feBlend mode="normal" in="SourceGraphic" in2="BackgroundImageFix" result="shape"/>
<feGaussianBlur stdDeviation="3" result="effect1_foregroundBlur"/>
</filter>
<filter id="filter12_f" x="341" y="274.49" width="28.5" height="105.2" filterUnits="userSpaceOnUse" color-interpolation-filters="sRGB">
<feFlood flood-opacity="0" result="BackgroundImageFix"/>
<feBlend mode="normal" in="SourceGraphic" in2="BackgroundImageFix" result="shape"/>
<feGaussianBlur stdDeviation="1.5" result="effect1_foregroundBlur"/>
</filter>
<filter id="filter13_d" x="586.504" y="307.781" width="45.5527" height="18.4141" filterUnits="userSpaceOnUse" color-interpolation-filters="sRGB">
<feFlood flood-opacity="0" result="BackgroundImageFix"/>
<feColorMatrix in="SourceAlpha" type="matrix" values="0 0 0 0 0 0 0 0 0 0 0 0 0 0 0 0 0 0 127 0"/>
<feOffset dy="2"/>
<feGaussianBlur stdDeviation="1"/>
<feColorMatrix type="matrix" values="0 0 0 0 0 0 0 0 0 0 0 0 0 0 0 0 0 0 0.161 0"/>
<feBlend mode="normal" in2="BackgroundImageFix" result="effect1_dropShadow"/>
<feBlend mode="normal" in="SourceGraphic" in2="effect1_dropShadow" result="shape"/>
</filter>
<filter id="filter14_f" x="591.5" y="329" width="34.5" height="52.5333" filterUnits="userSpaceOnUse" color-interpolation-filters="sRGB">
<feFlood flood-opacity="0" result="BackgroundImageFix"/>
<feBlend mode="normal" in="SourceGraphic" in2="BackgroundImageFix" result="shape"/>
<feGaussianBlur stdDeviation="3" result="effect1_foregroundBlur"/>
</filter>
<filter id="filter15_f" x="597" y="329.34" width="28.5" height="46.5333" filterUnits="userSpaceOnUse" color-interpolation-filters="sRGB">
<feFlood flood-opacity="0" result="BackgroundImageFix"/>
<feBlend mode="normal" in="SourceGraphic" in2="BackgroundImageFix" result="shape"/>
<feGaussianBlur stdDeviation="1.5" result="effect1_foregroundBlur"/>
</filter>
<linearGradient id="paint0_linear" x1="673.312" y1="421.268" x2="180.225" y2="-268.665" gradientUnits="userSpaceOnUse">
<stop stop-color="#F2F3F6"/>
<stop offset="1" stop-color="#E5E6EC"/>
</linearGradient>
<linearGradient id="paint1_linear" x1="482" y1="318.509" x2="482" y2="377" gradientUnits="userSpaceOnUse">
<stop stop-color="#FFD500"/>
<stop offset="1" stop-color="#22A9EF"/>
</linearGradient>
</defs>
</svg>
